<?xml version="1.0" standalone="no"?>
<!DOCTYPE svg PUBLIC "-//W3C//DTD SVG 20010904//EN"
 "http://www.w3.org/TR/2001/REC-SVG-20010904/DTD/svg10.dtd">
<svg version="1.0" xmlns="http://www.w3.org/2000/svg"
 width="757.000000pt" height="757.000000pt" viewBox="0 0 757.000000 757.000000"
 preserveAspectRatio="xMidYMid meet">
<metadata>
Created by potrace 1.14, written by Peter Selinger 2001-2017
</metadata>
<g transform="translate(0.000000,757.000000) scale(0.100000,-0.100000)"
fill="#000000" stroke="none">
<path d="M4630 7278 c-36 -10 -88 -18 -116 -18 -52 0 -132 -22 -172 -48 -12
-8 -36 -16 -52 -18 -16 -2 -46 -11 -67 -19 l-37 -16 -41 41 c-23 22 -52 43
-65 45 -14 3 -37 14 -51 24 -32 24 -63 18 -77 -13 -16 -36 6 -68 58 -86 78
-26 137 -70 95 -70 -25 0 -116 -50 -165 -90 -25 -21 -55 -41 -68 -45 -12 -3
-31 -16 -42 -27 l-19 -21 -25 25 c-43 43 -166 96 -222 96 -58 0 -74 -10 -74
-48 0 -38 23 -54 78 -55 51 -1 131 -35 160 -68 13 -15 14 -21 4 -24 -7 -3 -21
-22 -32 -43 -11 -21 -44 -65 -75 -98 -30 -33 -62 -76 -70 -95 -14 -34 -70 -87
-92 -87 -5 0 -30 -14 -54 -32 -91 -67 -160 -96 -237 -102 -54 -4 -86 -12 -120
-32 -39 -22 -62 -27 -140 -30 -57 -3 -102 -10 -115 -19 -12 -7 -42 -16 -67
-19 -108 -15 -127 -19 -157 -36 -17 -10 -53 -22 -80 -26 -102 -14 -119 -20
-158 -49 -16 -12 -48 -28 -70 -36 -22 -7 -71 -33 -109 -57 -38 -24 -76 -47
-85 -50 -9 -3 -25 -15 -36 -25 -11 -10 -43 -34 -72 -52 -35 -23 -65 -54 -92
-97 -22 -35 -47 -70 -56 -79 -8 -9 -15 -21 -15 -28 0 -6 -18 -47 -40 -91 -22
-43 -43 -98 -46 -122 -4 -24 -19 -74 -34 -113 -16 -38 -31 -95 -34 -125 -3
-30 -13 -75 -22 -100 -8 -24 -15 -69 -15 -100 1 -206 4 -250 18 -295 8 -27 17
-79 19 -115 6 -99 10 -118 39 -185 7 -16 15 -44 18 -61 7 -42 34 -94 66 -124
14 -14 40 -43 56 -65 30 -40 87 -99 141 -145 29 -26 67 -44 114 -54 14 -3 38
-17 54 -32 15 -15 60 -37 100 -49 39 -13 87 -30 106 -38 19 -8 60 -18 90 -22
79 -11 82 -11 165 -39 46 -15 96 -25 132 -25 37 0 79 -7 113 -21 32 -13 84
-23 125 -25 42 -2 88 -11 115 -23 25 -12 72 -23 105 -27 83 -8 102 -13 163
-41 30 -14 71 -24 96 -24 30 0 53 -8 77 -25 66 -47 114 -74 143 -79 36 -7 75
-43 81 -76 3 -14 13 -36 23 -50 11 -15 18 -41 18 -65 l-1 -40 -55 -3 c-47 -2
-59 -7 -82 -34 -33 -38 -38 -64 -21 -100 16 -32 40 -41 88 -32 l37 7 -20 -39
c-10 -22 -22 -52 -26 -67 l-7 -28 -26 21 c-40 31 -111 23 -175 -22 -25 -17
-28 -18 -28 -3 0 10 -13 45 -29 79 -29 59 -32 62 -98 88 -78 30 -137 29 -191
-2 -36 -22 -43 -24 -40 -12 0 4 -3 16 -7 26 -5 11 -4 31 3 48 11 31 9 56 -8
99 -16 38 -131 119 -168 119 -40 0 -62 9 -62 25 0 8 -11 27 -25 43 -42 50
-174 93 -290 94 -83 1 -120 -15 -173 -74 -87 -95 -106 -111 -158 -134 -66 -29
-118 -74 -135 -117 -7 -18 -13 -33 -14 -34 -1 -2 -21 7 -46 19 -40 20 -61 22
-138 15 -13 -1 -27 5 -31 13 -4 8 -14 29 -23 45 -18 33 -38 75 -121 250 -31
66 -61 127 -67 135 -21 34 -21 44 0 88 25 50 60 195 55 227 -2 10 -5 45 -8 76
-2 32 -11 70 -19 86 -8 15 -20 48 -27 73 -6 25 -36 95 -65 155 -50 102 -63
119 -177 237 -128 131 -212 194 -301 224 -68 24 -219 24 -262 0 -16 -9 -36
-16 -44 -16 -8 0 -36 -23 -62 -51 -85 -91 -121 -248 -96 -415 20 -127 83 -316
130 -389 18 -27 43 -74 56 -102 14 -29 27 -53 31 -53 4 0 22 -21 40 -47 18
-27 48 -62 66 -79 33 -31 145 -91 186 -100 71 -15 161 -19 178 -9 4 3 15 -15
25 -38 10 -23 26 -60 35 -82 10 -22 30 -69 44 -105 15 -36 31 -73 36 -82 7
-13 5 -21 -8 -30 -42 -30 -71 -113 -66 -186 6 -74 17 -96 67 -134 40 -30 44
-36 40 -65 -4 -26 2 -42 31 -82 20 -28 49 -59 64 -70 23 -17 27 -26 27 -73 0
-46 4 -58 34 -91 43 -47 91 -77 122 -77 14 0 41 11 61 25 41 27 48 30 48 15 0
-5 17 -50 39 -100 43 -100 85 -156 178 -241 15 -14 47 -46 70 -70 28 -30 72
-59 135 -89 51 -25 95 -46 97 -47 2 -1 -23 -31 -55 -66 -32 -35 -68 -84 -80
-108 -11 -24 -45 -96 -76 -159 -31 -63 -59 -131 -62 -150 -3 -19 -8 -51 -12
-70 -3 -19 -10 -60 -16 -90 -18 -91 -27 -184 -32 -331 -2 -53 -6 -101 -10
-107 -14 -22 -2 -383 15 -446 36 -137 54 -170 110 -200 58 -32 95 -38 264 -40
99 -1 137 3 165 15 19 9 62 16 95 17 34 0 87 5 120 11 33 6 87 13 120 16 33 3
77 7 97 9 23 3 38 0 41 -8 6 -14 103 -64 139 -72 44 -9 103 -6 133 6 17 7 64
13 105 15 42 1 89 9 105 17 17 8 57 16 90 17 33 1 78 5 100 8 22 4 54 6 70 5
17 -1 100 -3 185 -6 85 -2 182 -8 215 -11 102 -12 139 -12 165 -3 13 5 56 9
95 8 38 -1 90 -2 115 -2 57 -1 158 12 188 23 12 5 25 15 28 24 4 10 11 12 22
6 15 -7 70 -20 94 -21 4 -1 22 -7 40 -14 56 -23 337 -11 578 24 69 10 98 20
156 55 l71 42 36 -27 c32 -24 53 -28 98 -21 4 1 9 10 12 21 5 21 -16 50 -37
50 -6 0 -36 25 -66 56 -45 45 -141 105 -190 119 -40 10 -95 18 -135 19 -31 1
-73 12 -113 31 -44 20 -78 28 -110 27 -134 -4 -179 -9 -212 -27 -48 -26 -100
-32 -100 -10 0 18 23 96 47 160 19 51 28 116 25 185 -7 225 -22 316 -63 408
-11 24 -21 65 -23 91 -5 69 -24 147 -57 226 -16 39 -34 97 -40 130 -13 72 -30
136 -39 150 -14 20 -59 171 -66 220 -3 28 -10 55 -15 60 -9 12 -16 47 -25 114
-3 24 -16 86 -30 137 -23 91 -27 117 -39 254 -3 36 -7 82 -10 102 l-5 37 52
16 c77 22 95 38 106 90 17 81 0 100 -101 116 -34 6 -64 15 -68 21 -8 12 3 65
19 95 7 12 12 35 12 51 0 34 55 173 73 184 26 16 50 34 84 65 19 18 43 33 53
33 17 0 62 16 126 45 17 8 48 17 69 21 20 3 58 18 84 34 25 16 64 33 86 39 48
12 181 58 206 71 14 8 21 2 40 -37 12 -25 34 -60 49 -77 15 -17 36 -52 47 -77
22 -49 66 -81 203 -148 85 -41 99 -43 179 -25 47 11 79 13 102 7 54 -14 120
-1 174 35 34 23 60 32 89 32 39 0 67 13 185 88 20 12 54 31 76 42 61 30 132
103 169 175 19 35 48 77 64 92 28 27 61 111 78 203 4 19 14 45 22 58 33 51 32
498 -1 613 -9 30 -19 73 -22 95 -11 71 -13 79 -28 132 -9 29 -16 53 -15 55 3
12 -29 101 -47 133 -13 23 -26 52 -29 65 -8 42 -24 76 -46 96 -14 14 -22 37
-26 74 -3 30 -14 70 -26 89 -11 19 -27 58 -35 85 -8 28 -25 68 -38 91 -13 22
-23 54 -23 70 0 16 -11 56 -25 89 -13 33 -27 79 -31 102 -4 36 -44 115 -65
133 -3 3 -7 25 -9 50 -3 54 -49 152 -92 199 -17 18 -40 56 -51 84 -23 58 -51
100 -91 139 -15 14 -28 35 -28 46 0 20 -18 40 -116 134 -27 26 -66 65 -86 86
-20 21 -54 44 -75 50 -25 7 -45 22 -56 41 -23 38 -62 66 -113 80 -22 6 -53 24
-69 39 -37 36 -63 50 -106 57 -51 9 -72 16 -99 35 -14 10 -50 20 -80 23 -30 4
-75 12 -100 20 -25 7 -76 15 -115 16 -38 1 -87 10 -110 19 -59 23 -335 23
-425 0z"/>
</g>
</svg>
