<?xml version="1.0" standalone="no"?>
<!DOCTYPE svg PUBLIC "-//W3C//DTD SVG 20010904//EN"
 "http://www.w3.org/TR/2001/REC-SVG-20010904/DTD/svg10.dtd">
<svg version="1.0" xmlns="http://www.w3.org/2000/svg"
 width="512.000000pt" height="512.000000pt" viewBox="0 0 512.000000 512.000000"
 preserveAspectRatio="xMidYMid meet">
<metadata>
Created by potrace 1.14, written by Peter Selinger 2001-2017
</metadata>
<g transform="translate(0.000000,512.000000) scale(0.100000,-0.100000)"
fill="#000000" stroke="none">
<path d="M1745 3977 c-22 -8 -61 -26 -86 -40 -52 -30 -170 -150 -216 -217
-304 -450 -498 -1316 -529 -2363 l-7 -227 205 0 205 0 7 243 c23 809 87 1401
201 1853 136 536 303 692 472 440 148 -221 273 -786 328 -1481 14 -182 35
-645 35 -787 l0 -68 205 0 205 0 0 138 c0 294 33 801 71 1102 90 711 245 1162
415 1209 143 40 280 -216 384 -714 95 -461 160 -1153 160 -1722 l0 -213 207 0
206 0 -7 228 c-39 1289 -326 2300 -732 2569 -275 183 -581 -44 -801 -592 -27
-66 -62 -164 -78 -217 -17 -54 -33 -98 -36 -98 -4 0 -12 21 -18 47 -23 90
-103 299 -161 418 -155 319 -333 490 -523 501 -44 2 -88 -1 -112 -9z"/>
</g>
</svg>
